<mxfile host="app.diagrams.net" modified="2023-08-03T13:57:45.461Z" agent="Mozilla/5.0 (Windows NT 10.0; Win64; x64) AppleWebKit/537.36 (KHTML, like Gecko) Chrome/115.0.0.0 Safari/537.36" etag="a6DhR4febhAahLVr-SyU" version="21.6.6" type="github">
  <diagram name="第 1 页" id="k0ht7CsUPMUArAAHNs5Z">
    <mxGraphModel dx="478" dy="250" grid="1" gridSize="10" guides="1" tooltips="1" connect="1" arrows="1" fold="1" page="1" pageScale="1" pageWidth="827" pageHeight="1169" math="0" shadow="0">
      <root>
        <mxCell id="0" />
        <mxCell id="1" parent="0" />
        <mxCell id="zH1OFpGTS5VMXPJaPXMf-9" style="edgeStyle=orthogonalEdgeStyle;rounded=0;orthogonalLoop=1;jettySize=auto;html=1;exitX=1;exitY=0.25;exitDx=0;exitDy=0;entryX=0;entryY=0.25;entryDx=0;entryDy=0;" edge="1" parent="1" source="zH1OFpGTS5VMXPJaPXMf-1" target="zH1OFpGTS5VMXPJaPXMf-3">
          <mxGeometry relative="1" as="geometry" />
        </mxCell>
        <mxCell id="zH1OFpGTS5VMXPJaPXMf-24" style="edgeStyle=orthogonalEdgeStyle;rounded=0;orthogonalLoop=1;jettySize=auto;html=1;exitX=0.5;exitY=1;exitDx=0;exitDy=0;entryX=0;entryY=0.5;entryDx=0;entryDy=0;entryPerimeter=0;" edge="1" parent="1" source="zH1OFpGTS5VMXPJaPXMf-1" target="zH1OFpGTS5VMXPJaPXMf-15">
          <mxGeometry relative="1" as="geometry" />
        </mxCell>
        <mxCell id="zH1OFpGTS5VMXPJaPXMf-1" value="&lt;font style=&quot;font-size: 18px;&quot;&gt;env&lt;/font&gt;" style="rounded=1;whiteSpace=wrap;html=1;fillColor=#60a917;fontColor=#ffffff;strokeColor=#2D7600;" vertex="1" parent="1">
          <mxGeometry x="70" y="340" width="120" height="60" as="geometry" />
        </mxCell>
        <mxCell id="zH1OFpGTS5VMXPJaPXMf-7" style="edgeStyle=orthogonalEdgeStyle;rounded=0;orthogonalLoop=1;jettySize=auto;html=1;exitX=1;exitY=0.5;exitDx=0;exitDy=0;entryX=0;entryY=0.5;entryDx=0;entryDy=0;" edge="1" parent="1" source="zH1OFpGTS5VMXPJaPXMf-3" target="zH1OFpGTS5VMXPJaPXMf-4">
          <mxGeometry relative="1" as="geometry" />
        </mxCell>
        <mxCell id="zH1OFpGTS5VMXPJaPXMf-10" style="edgeStyle=orthogonalEdgeStyle;rounded=0;orthogonalLoop=1;jettySize=auto;html=1;exitX=0;exitY=0.75;exitDx=0;exitDy=0;entryX=1;entryY=0.75;entryDx=0;entryDy=0;" edge="1" parent="1" source="zH1OFpGTS5VMXPJaPXMf-3" target="zH1OFpGTS5VMXPJaPXMf-1">
          <mxGeometry relative="1" as="geometry" />
        </mxCell>
        <mxCell id="zH1OFpGTS5VMXPJaPXMf-3" value="" style="rounded=1;whiteSpace=wrap;html=1;fillColor=#dae8fc;strokeColor=#6c8ebf;" vertex="1" parent="1">
          <mxGeometry x="300" y="260" width="140" height="140" as="geometry" />
        </mxCell>
        <mxCell id="zH1OFpGTS5VMXPJaPXMf-4" value="&lt;font style=&quot;font-size: 18px;&quot;&gt;Target Q&lt;/font&gt;" style="rounded=1;whiteSpace=wrap;html=1;fillColor=#dae8fc;strokeColor=#6c8ebf;" vertex="1" parent="1">
          <mxGeometry x="530" y="260" width="140" height="140" as="geometry" />
        </mxCell>
        <mxCell id="zH1OFpGTS5VMXPJaPXMf-5" value="&lt;font style=&quot;font-size: 18px;&quot;&gt;Loss Function&lt;/font&gt;" style="rounded=1;whiteSpace=wrap;html=1;fillColor=#e1d5e7;strokeColor=#9673a6;" vertex="1" parent="1">
          <mxGeometry x="310" y="150" width="450" height="60" as="geometry" />
        </mxCell>
        <mxCell id="zH1OFpGTS5VMXPJaPXMf-11" value="&lt;font style=&quot;font-size: 18px;&quot; face=&quot;Times New Roman&quot;&gt;&lt;font style=&quot;font-size: 18px;&quot;&gt;argmax&amp;nbsp;&lt;/font&gt;Q(s, a; θ)&lt;/font&gt;" style="text;html=1;strokeColor=none;fillColor=none;align=center;verticalAlign=middle;whiteSpace=wrap;rounded=0;" vertex="1" parent="1">
          <mxGeometry x="180" y="320" width="150" height="30" as="geometry" />
        </mxCell>
        <mxCell id="zH1OFpGTS5VMXPJaPXMf-12" value="&lt;font style=&quot;font-size: 18px;&quot; face=&quot;Times New Roman&quot;&gt;s&lt;/font&gt;" style="text;html=1;strokeColor=none;fillColor=none;align=center;verticalAlign=middle;whiteSpace=wrap;rounded=0;" vertex="1" parent="1">
          <mxGeometry x="210" y="390" width="80" height="20" as="geometry" />
        </mxCell>
        <mxCell id="zH1OFpGTS5VMXPJaPXMf-14" value="&lt;font face=&quot;Times New Roman&quot;&gt;&lt;span style=&quot;font-size: 18px;&quot;&gt;copy&lt;/span&gt;&lt;/font&gt;" style="text;html=1;strokeColor=none;fillColor=none;align=center;verticalAlign=middle;whiteSpace=wrap;rounded=0;" vertex="1" parent="1">
          <mxGeometry x="440" y="350" width="80" height="20" as="geometry" />
        </mxCell>
        <mxCell id="zH1OFpGTS5VMXPJaPXMf-16" style="edgeStyle=orthogonalEdgeStyle;rounded=0;orthogonalLoop=1;jettySize=auto;html=1;exitX=0.5;exitY=0;exitDx=0;exitDy=0;exitPerimeter=0;entryX=0.25;entryY=1;entryDx=0;entryDy=0;" edge="1" parent="1" source="zH1OFpGTS5VMXPJaPXMf-15" target="zH1OFpGTS5VMXPJaPXMf-4">
          <mxGeometry relative="1" as="geometry" />
        </mxCell>
        <mxCell id="zH1OFpGTS5VMXPJaPXMf-17" style="edgeStyle=orthogonalEdgeStyle;rounded=0;orthogonalLoop=1;jettySize=auto;html=1;exitX=0.5;exitY=0;exitDx=0;exitDy=0;exitPerimeter=0;entryX=0.75;entryY=1;entryDx=0;entryDy=0;" edge="1" parent="1" source="zH1OFpGTS5VMXPJaPXMf-15" target="zH1OFpGTS5VMXPJaPXMf-3">
          <mxGeometry relative="1" as="geometry" />
        </mxCell>
        <mxCell id="zH1OFpGTS5VMXPJaPXMf-26" style="edgeStyle=orthogonalEdgeStyle;rounded=0;orthogonalLoop=1;jettySize=auto;html=1;exitX=1;exitY=0.5;exitDx=0;exitDy=0;exitPerimeter=0;entryX=0.924;entryY=1.033;entryDx=0;entryDy=0;entryPerimeter=0;" edge="1" parent="1" source="zH1OFpGTS5VMXPJaPXMf-15" target="zH1OFpGTS5VMXPJaPXMf-5">
          <mxGeometry relative="1" as="geometry" />
        </mxCell>
        <mxCell id="zH1OFpGTS5VMXPJaPXMf-15" value="&lt;font style=&quot;font-size: 18px;&quot;&gt;Replay Buffer&lt;/font&gt;" style="strokeWidth=2;html=1;shape=mxgraph.flowchart.database;whiteSpace=wrap;fillColor=#fff2cc;strokeColor=#d6b656;" vertex="1" parent="1">
          <mxGeometry x="430" y="495" width="126" height="90" as="geometry" />
        </mxCell>
        <mxCell id="zH1OFpGTS5VMXPJaPXMf-18" value="&lt;font style=&quot;font-size: 18px;&quot; face=&quot;Times New Roman&quot;&gt;s&#39;&lt;/font&gt;" style="text;html=1;strokeColor=none;fillColor=none;align=center;verticalAlign=middle;whiteSpace=wrap;rounded=0;" vertex="1" parent="1">
          <mxGeometry x="500" y="450" width="80" height="20" as="geometry" />
        </mxCell>
        <mxCell id="zH1OFpGTS5VMXPJaPXMf-19" value="&lt;font style=&quot;font-size: 18px;&quot; face=&quot;Times New Roman&quot;&gt;(s,a)&lt;/font&gt;" style="text;html=1;strokeColor=none;fillColor=none;align=center;verticalAlign=middle;whiteSpace=wrap;rounded=0;" vertex="1" parent="1">
          <mxGeometry x="400" y="450" width="80" height="20" as="geometry" />
        </mxCell>
        <mxCell id="zH1OFpGTS5VMXPJaPXMf-25" value="&lt;font style=&quot;font-size: 18px;&quot; face=&quot;Times New Roman&quot;&gt;(s,a,r,s&#39;)&lt;/font&gt;" style="text;html=1;strokeColor=none;fillColor=none;align=center;verticalAlign=middle;whiteSpace=wrap;rounded=0;" vertex="1" parent="1">
          <mxGeometry x="230" y="510" width="80" height="20" as="geometry" />
        </mxCell>
        <mxCell id="zH1OFpGTS5VMXPJaPXMf-27" value="&lt;font style=&quot;font-size: 18px;&quot; face=&quot;Times New Roman&quot;&gt;r&lt;/font&gt;" style="text;html=1;strokeColor=none;fillColor=none;align=center;verticalAlign=middle;whiteSpace=wrap;rounded=0;" vertex="1" parent="1">
          <mxGeometry x="670" y="410" width="80" height="20" as="geometry" />
        </mxCell>
        <mxCell id="zH1OFpGTS5VMXPJaPXMf-41" style="rounded=1;orthogonalLoop=1;jettySize=auto;html=1;exitX=0.5;exitY=1;exitDx=0;exitDy=0;strokeColor=#005700;endArrow=none;endFill=0;fillColor=#008a00;" edge="1" parent="1" source="zH1OFpGTS5VMXPJaPXMf-31" target="zH1OFpGTS5VMXPJaPXMf-34">
          <mxGeometry relative="1" as="geometry" />
        </mxCell>
        <mxCell id="zH1OFpGTS5VMXPJaPXMf-31" value="" style="ellipse;whiteSpace=wrap;html=1;aspect=fixed;fillColor=#f8cecc;strokeColor=#b85450;" vertex="1" parent="1">
          <mxGeometry x="210" y="670" width="70" height="70" as="geometry" />
        </mxCell>
        <mxCell id="zH1OFpGTS5VMXPJaPXMf-32" value="" style="ellipse;whiteSpace=wrap;html=1;aspect=fixed;fillColor=#f8cecc;strokeColor=#b85450;" vertex="1" parent="1">
          <mxGeometry x="310" y="670" width="70" height="70" as="geometry" />
        </mxCell>
        <mxCell id="zH1OFpGTS5VMXPJaPXMf-33" value="" style="ellipse;whiteSpace=wrap;html=1;aspect=fixed;fillColor=#f8cecc;strokeColor=#b85450;" vertex="1" parent="1">
          <mxGeometry x="414" y="670" width="70" height="70" as="geometry" />
        </mxCell>
        <mxCell id="zH1OFpGTS5VMXPJaPXMf-34" value="" style="ellipse;whiteSpace=wrap;html=1;aspect=fixed;fillColor=#f8cecc;strokeColor=#b85450;" vertex="1" parent="1">
          <mxGeometry x="151" y="790" width="70" height="70" as="geometry" />
        </mxCell>
        <mxCell id="zH1OFpGTS5VMXPJaPXMf-35" value="" style="ellipse;whiteSpace=wrap;html=1;aspect=fixed;fillColor=#f8cecc;strokeColor=#b85450;" vertex="1" parent="1">
          <mxGeometry x="261" y="790" width="70" height="70" as="geometry" />
        </mxCell>
        <mxCell id="zH1OFpGTS5VMXPJaPXMf-36" value="" style="ellipse;whiteSpace=wrap;html=1;aspect=fixed;fillColor=#f8cecc;strokeColor=#b85450;" vertex="1" parent="1">
          <mxGeometry x="361" y="790" width="70" height="70" as="geometry" />
        </mxCell>
        <mxCell id="zH1OFpGTS5VMXPJaPXMf-37" value="" style="ellipse;whiteSpace=wrap;html=1;aspect=fixed;fillColor=#f8cecc;strokeColor=#b85450;" vertex="1" parent="1">
          <mxGeometry x="469" y="790" width="70" height="70" as="geometry" />
        </mxCell>
        <mxCell id="zH1OFpGTS5VMXPJaPXMf-39" value="" style="ellipse;whiteSpace=wrap;html=1;aspect=fixed;fillColor=#f8cecc;strokeColor=#b85450;" vertex="1" parent="1">
          <mxGeometry x="260" y="910" width="70" height="70" as="geometry" />
        </mxCell>
        <mxCell id="zH1OFpGTS5VMXPJaPXMf-40" value="" style="ellipse;whiteSpace=wrap;html=1;aspect=fixed;fillColor=#f8cecc;strokeColor=#b85450;" vertex="1" parent="1">
          <mxGeometry x="361" y="910" width="70" height="70" as="geometry" />
        </mxCell>
        <mxCell id="zH1OFpGTS5VMXPJaPXMf-42" style="rounded=1;orthogonalLoop=1;jettySize=auto;html=1;exitX=0.5;exitY=1;exitDx=0;exitDy=0;strokeColor=#005700;endArrow=none;endFill=0;fillColor=#008a00;" edge="1" parent="1" source="zH1OFpGTS5VMXPJaPXMf-32">
          <mxGeometry relative="1" as="geometry">
            <mxPoint x="339" y="734" as="sourcePoint" />
            <mxPoint x="300" y="790" as="targetPoint" />
          </mxGeometry>
        </mxCell>
        <mxCell id="zH1OFpGTS5VMXPJaPXMf-43" style="rounded=1;orthogonalLoop=1;jettySize=auto;html=1;exitX=0.5;exitY=1;exitDx=0;exitDy=0;strokeColor=#005700;endArrow=none;endFill=0;fillColor=#008a00;" edge="1" parent="1" source="zH1OFpGTS5VMXPJaPXMf-33">
          <mxGeometry relative="1" as="geometry">
            <mxPoint x="440" y="734" as="sourcePoint" />
            <mxPoint x="401" y="790" as="targetPoint" />
          </mxGeometry>
        </mxCell>
        <mxCell id="zH1OFpGTS5VMXPJaPXMf-45" style="rounded=1;orthogonalLoop=1;jettySize=auto;html=1;exitX=0.5;exitY=1;exitDx=0;exitDy=0;strokeColor=#005700;endArrow=none;endFill=0;fillColor=#008a00;entryX=0.548;entryY=0.002;entryDx=0;entryDy=0;entryPerimeter=0;" edge="1" parent="1" source="zH1OFpGTS5VMXPJaPXMf-31" target="zH1OFpGTS5VMXPJaPXMf-35">
          <mxGeometry relative="1" as="geometry">
            <mxPoint x="255" y="750" as="sourcePoint" />
            <mxPoint x="216" y="806" as="targetPoint" />
          </mxGeometry>
        </mxCell>
        <mxCell id="zH1OFpGTS5VMXPJaPXMf-46" style="rounded=1;orthogonalLoop=1;jettySize=auto;html=1;exitX=0.5;exitY=1;exitDx=0;exitDy=0;strokeColor=#005700;endArrow=none;endFill=0;fillColor=#008a00;entryX=0.548;entryY=0.002;entryDx=0;entryDy=0;entryPerimeter=0;" edge="1" parent="1">
          <mxGeometry relative="1" as="geometry">
            <mxPoint x="346" y="740" as="sourcePoint" />
            <mxPoint x="400" y="790" as="targetPoint" />
          </mxGeometry>
        </mxCell>
        <mxCell id="zH1OFpGTS5VMXPJaPXMf-47" style="rounded=1;orthogonalLoop=1;jettySize=auto;html=1;strokeColor=#005700;endArrow=none;endFill=0;fillColor=#008a00;entryX=0.548;entryY=0.002;entryDx=0;entryDy=0;entryPerimeter=0;" edge="1" parent="1">
          <mxGeometry relative="1" as="geometry">
            <mxPoint x="450" y="740" as="sourcePoint" />
            <mxPoint x="500" y="790" as="targetPoint" />
          </mxGeometry>
        </mxCell>
        <mxCell id="zH1OFpGTS5VMXPJaPXMf-48" style="rounded=1;orthogonalLoop=1;jettySize=auto;html=1;exitX=0.5;exitY=1;exitDx=0;exitDy=0;strokeColor=#005700;endArrow=none;endFill=0;fillColor=#008a00;entryX=0.5;entryY=0;entryDx=0;entryDy=0;" edge="1" parent="1" target="zH1OFpGTS5VMXPJaPXMf-36">
          <mxGeometry relative="1" as="geometry">
            <mxPoint x="246" y="740" as="sourcePoint" />
            <mxPoint x="300" y="790" as="targetPoint" />
          </mxGeometry>
        </mxCell>
        <mxCell id="zH1OFpGTS5VMXPJaPXMf-49" style="rounded=1;orthogonalLoop=1;jettySize=auto;html=1;strokeColor=#005700;endArrow=none;endFill=0;fillColor=#008a00;entryX=0.5;entryY=0;entryDx=0;entryDy=0;exitX=0.5;exitY=1;exitDx=0;exitDy=0;" edge="1" parent="1" source="zH1OFpGTS5VMXPJaPXMf-31" target="zH1OFpGTS5VMXPJaPXMf-37">
          <mxGeometry relative="1" as="geometry">
            <mxPoint x="250" y="740" as="sourcePoint" />
            <mxPoint x="319" y="810" as="targetPoint" />
          </mxGeometry>
        </mxCell>
        <mxCell id="zH1OFpGTS5VMXPJaPXMf-50" style="rounded=1;orthogonalLoop=1;jettySize=auto;html=1;strokeColor=#005700;endArrow=none;endFill=0;fillColor=#008a00;entryX=0.788;entryY=0.107;entryDx=0;entryDy=0;entryPerimeter=0;exitX=0.5;exitY=1;exitDx=0;exitDy=0;" edge="1" parent="1" source="zH1OFpGTS5VMXPJaPXMf-32" target="zH1OFpGTS5VMXPJaPXMf-34">
          <mxGeometry relative="1" as="geometry">
            <mxPoint x="350" y="740" as="sourcePoint" />
            <mxPoint x="310" y="800" as="targetPoint" />
          </mxGeometry>
        </mxCell>
        <mxCell id="zH1OFpGTS5VMXPJaPXMf-51" style="rounded=1;orthogonalLoop=1;jettySize=auto;html=1;exitX=0.5;exitY=1;exitDx=0;exitDy=0;strokeColor=#005700;endArrow=none;endFill=0;fillColor=#008a00;entryX=0.78;entryY=0.104;entryDx=0;entryDy=0;entryPerimeter=0;" edge="1" parent="1" source="zH1OFpGTS5VMXPJaPXMf-33" target="zH1OFpGTS5VMXPJaPXMf-34">
          <mxGeometry relative="1" as="geometry">
            <mxPoint x="365" y="760" as="sourcePoint" />
            <mxPoint x="320" y="810" as="targetPoint" />
          </mxGeometry>
        </mxCell>
        <mxCell id="zH1OFpGTS5VMXPJaPXMf-52" style="rounded=1;orthogonalLoop=1;jettySize=auto;html=1;strokeColor=#005700;endArrow=none;endFill=0;fillColor=#008a00;entryX=0.5;entryY=0;entryDx=0;entryDy=0;" edge="1" parent="1" target="zH1OFpGTS5VMXPJaPXMf-35">
          <mxGeometry relative="1" as="geometry">
            <mxPoint x="450" y="740" as="sourcePoint" />
            <mxPoint x="330" y="820" as="targetPoint" />
          </mxGeometry>
        </mxCell>
        <mxCell id="zH1OFpGTS5VMXPJaPXMf-53" style="rounded=1;orthogonalLoop=1;jettySize=auto;html=1;strokeColor=#005700;endArrow=none;endFill=0;fillColor=#008a00;entryX=0.5;entryY=0;entryDx=0;entryDy=0;exitX=0.5;exitY=1;exitDx=0;exitDy=0;" edge="1" parent="1" source="zH1OFpGTS5VMXPJaPXMf-32" target="zH1OFpGTS5VMXPJaPXMf-37">
          <mxGeometry relative="1" as="geometry">
            <mxPoint x="340" y="740" as="sourcePoint" />
            <mxPoint x="440" y="800" as="targetPoint" />
          </mxGeometry>
        </mxCell>
      </root>
    </mxGraphModel>
  </diagram>
</mxfile>
